<svg width="180" height="180" viewBox="0 0 180 180" fill="none" xmlns="http://www.w3.org/2000/svg">
  <!-- 背景圆角矩形 -->
  <rect width="180" height="180" rx="40" fill="#3B82F6"/>
  
  <!-- 简化的大脑图标 -->
  <path d="M67.5 56.25C61.9772 56.25 50.625 64.1569 50.625 73.125C50.625 76.2316 53.1434 78.75 56.25 78.75H61.875C61.875 84.9632 67.1618 90 73.125 90H78.75C78.75 96.2132 84.0368 101.25 90 101.25C95.9632 101.25 101.25 96.2132 101.25 90H106.875C112.8382 90 118.125 84.9632 118.125 78.75H123.75C126.8566 78.75 129.375 76.2316 129.375 73.125C129.375 64.1569 118.0228 56.25 112.5 56.25C108.0247 56.25 103.8337 58.4161 100.3031 61.0969C96.7725 58.4161 92.5815 56.25 90 56.25C87.4185 56.25 83.2275 58.4161 79.6969 61.0969C76.1663 58.4161 71.9753 56.25 67.5 56.25Z" fill="white"/>
  
  <!-- 简化的连接点 -->
  <circle cx="73.125" cy="112.5" r="11.25" fill="#FCD34D"/>
  <circle cx="106.875" cy="112.5" r="11.25" fill="#34D399"/>
  <circle cx="90" cy="135" r="11.25" fill="#F87171"/>
  
  <!-- 简化的连接线 -->
  <path d="M73.125 112.5L90 135L106.875 112.5" stroke="white" stroke-width="11.25" fill="none"/>
</svg>