<svg width="32" height="32" viewBox="0 0 32 32" fill="none" xmlns="http://www.w3.org/2000/svg">
  <!-- 背景圆形 -->
  <circle cx="16" cy="16" r="15" fill="#3B82F6"/>
  
  <!-- 简化的大脑图标 -->
  <path d="M12 10C10.3431 10 9 11.3431 9 13C9 13.5523 9.44772 14 10 14H11C11 15.1046 11.8954 16 13 16H14C14 17.1046 14.8954 18 16 18C17.1046 18 18 17.1046 18 16H19C20.1046 16 21 15.1046 21 14H22C22.5523 14 23 13.5523 23 13C23 11.3431 21.6569 10 20 10C19.2044 10 18.4413 10.3161 17.8787 10.8787C17.3161 10.3161 16.7956 10 16 10C15.2044 10 14.6839 10.3161 14.1213 10.8787C13.5587 10.3161 12.7956 10 12 10Z" fill="white"/>
  
  <!-- 简化的连接点 -->
  <circle cx="13" cy="20" r="2" fill="#FCD34D"/>
  <circle cx="19" cy="20" r="2" fill="#34D399"/>
  <circle cx="16" cy="24" r="2" fill="#F87171"/>
  
  <!-- 简化的连接线 -->
  <path d="M13 20L16 24L19 20" stroke="white" stroke-width="2" fill="none"/>
</svg>